<svg t="1683797127311" class="icon" viewBox="0 0 1024 1024" version="1.1" xmlns="http://www.w3.org/2000/svg" p-id="2453" width="200" height="200"><path d="M790.31967 108.611607h-65.385337c9.961932 13.491295 15.854138 30.171179 15.854138 48.228911 0 44.889803-36.390312 81.280115-81.280115 81.280115h-295.016712c-44.889803 0-81.280115-36.390312-81.280115-81.280115 0-18.057732 5.892206-34.737616 15.854138-48.228911h-65.385337c-47.128318 0-85.333584 38.205266-85.333584 85.333584v702.343278c0 47.128619 38.205266 85.333584 85.333584 85.333584h556.63934c47.128619 0 85.333584-38.204965 85.333584-85.333584V193.94489c0-47.128318-38.204965-85.333283-85.333584-85.333283zM486.712853 857.053655h-201.695099c-13.96573 0-25.287147-22.643135-25.287147-50.574294s11.321417-50.574294 25.287147-50.574294h201.695099c13.96573 0 25.287147 22.643135 25.287147 50.574294s-11.321417 50.574294-25.287147 50.574294z m115.987025-199.2868H297.939486c-21.102124 0-38.208879-22.643135-38.208879-50.574294s17.106755-50.574294 38.208879-50.574294h304.760392c21.102425 0 38.208879 22.643135 38.208879 50.574294s-17.106454 50.574294-38.208879 50.574294z m110.995222-198.08265h-403.3902c-27.93146 0-50.574294-22.642834-50.574293-50.574294s22.642834-50.574294 50.574293-50.574294h403.3902c27.93146 0 50.574294 22.642834 50.574293 50.574294s-22.642834 50.574294-50.574293 50.574294z" fill="#dbdbdb" p-id="2454"></path><path d="M705.868126 132.694604c0 38.038191-30.835869 68.87406-68.874361 68.87406h-249.98753c-38.038492 0-68.874361-30.835869-68.874361-68.87406 0-38.038191 30.835869-68.874361 68.874361-68.874361h249.98753c38.038793 0 68.874361 30.83617 68.874361 68.874361z" fill="#dbdbdb" p-id="2455"></path></svg>