<svg t="1683682367160" class="icon" viewBox="0 0 1024 1024" version="1.1" xmlns="http://www.w3.org/2000/svg" p-id="14159" width="200" height="200"><path d="M987.392 988.224H36.544c-20.096 0-36.544-14.336-36.544-32.128v-191.872c0-17.6 16.384-32 36.544-32h950.784c20.224 0 36.608 14.272 36.608 32v191.872c0.064 17.792-16.32 32.128-36.544 32.128zM146.304 785.6H60.992v74.624h85.312v-74.624z m499.84 0H560.832v149.248h85.312v-149.248z m158.336 0h-85.248v149.248h85.248v-149.248z m158.528 0h-85.312v149.248h85.312v-149.248zM987.392 654.656H36.544c-20.096 0-36.544-14.4-36.544-32.128V430.592c0-17.6 16.384-32 36.544-32h950.784c20.224 0 36.608 14.336 36.608 32v191.936c0.064 17.728-16.32 32.128-36.544 32.128zM146.304 451.904H60.992v74.688h85.312V451.904z m499.84 0H560.832v149.312h85.312V451.904z m158.336 0h-85.248v149.312h85.248V451.904z m158.528 0h-85.312v149.312h85.312V451.904zM987.392 320H36.544C16.448 320 0 305.664 0 287.936V96c0-17.6 16.384-32 36.544-32h950.784c20.288 0 36.672 14.336 36.672 32v191.936c0 17.728-16.384 32.064-36.608 32.064zM146.304 117.312H60.992V192h85.312V117.312z m499.84 0H560.832v149.312h85.312V117.312z m158.336 0h-85.248v149.312h85.248V117.312z m158.528 0h-85.312v149.312h85.312V117.312z" fill="#dbdbdb" p-id="14160"></path></svg>