<svg t="1683797182166" class="icon" viewBox="0 0 1024 1024" version="1.1" xmlns="http://www.w3.org/2000/svg" p-id="5251" width="200" height="200"><path d="M298.259946 38.042015c-33.586386-43.020209-95.819983-50.577145-138.593232-17.138935L81.627759 81.852491c-42.970817 33.536994-50.379578 95.770591-16.891976 138.642624L95.111705 259.366418l233.524164-182.453101L313.423212 57.502362 298.259946 38.042015z" p-id="5252" fill="#dbdbdb"></path><path d="M67.452329 529.588647c0 149.212457 73.494914 281.236588 186.305657 361.893305l-98.042611 97.598085 34.574221 34.426045 105.747723-105.303197c63.912916 35.611447 137.556006 55.911454 215.940703 55.911454 76.804161 0 149.01489-19.460347 212.038755-53.738217l103.574486 103.129961 34.574221-34.426045-95.523632-95.128498c114.786412-80.360367 189.861862-213.619291 189.861862-364.362892 0-245.526357-198.999335-444.525692-444.525692-444.525692C266.501055 85.062955 67.452329 284.111681 67.452329 529.588647zM561.369764 529.193513l0 49.589311-0.246959 0 0 0.197567L511.978021 578.98039l0-0.197567-197.566974 0 0-49.589311 197.566974 0L511.978021 233.238185l49.144785 0 0 295.955327L561.369764 529.193513z" p-id="5253" fill="#dbdbdb"></path><path d="M944.056993 239.906071l15.163265-19.460347c33.586386-43.020209 25.881274-105.204414-16.891976-138.642624l-77.989563-60.949412c-42.970817-33.536994-105.155022-25.733098-138.593232 17.138935l-30.375922 38.871302L928.893728 259.366418 944.056993 239.906071z" p-id="5254" fill="#dbdbdb"></path></svg>